<svg width="109" height="40" viewBox="900 720 950 252" fill="none" xmlns="http://www.w3.org/2000/svg">
<path d="M1057.9 886.667L1125.9 847.384L976.766 761.414V722L1126.66 808.402V886.292L1057.9 926.024V886.667Z" fill="#2A9D8F"/>
<path d="M988.758 807.333L920.759 846.616L1069.89 932.586V972L920 885.598V807.708L988.758 767.976V807.333Z" fill="#2A9D8F"/>
<circle cx="1023" cy="846" r="38" fill="black"/>
<path d="M1183.5 763H1228L1271.75 879H1272.25L1316.75 763H1358.5L1285.5 940H1254.25L1183.5 763ZM1376.53 763H1415.53V940H1376.53V763ZM1538.5 806.25C1535.33 802.25 1531 799.333 1525.5 797.5C1520.17 795.5 1515.08 794.5 1510.25 794.5C1507.42 794.5 1504.5 794.833 1501.5 795.5C1498.5 796.167 1495.67 797.25 1493 798.75C1490.33 800.083 1488.17 801.917 1486.5 804.25C1484.83 806.583 1484 809.417 1484 812.75C1484 818.083 1486 822.167 1490 825C1494 827.833 1499 830.25 1505 832.25C1511.17 834.25 1517.75 836.25 1524.75 838.25C1531.75 840.25 1538.25 843.083 1544.25 846.75C1550.42 850.417 1555.5 855.333 1559.5 861.5C1563.5 867.667 1565.5 875.917 1565.5 886.25C1565.5 896.083 1563.67 904.667 1560 912C1556.33 919.333 1551.33 925.417 1545 930.25C1538.83 935.083 1531.58 938.667 1523.25 941C1515.08 943.333 1506.42 944.5 1497.25 944.5C1485.75 944.5 1475.08 942.75 1465.25 939.25C1455.42 935.75 1446.25 930.083 1437.75 922.25L1465.5 891.75C1469.5 897.083 1474.5 901.25 1480.5 904.25C1486.67 907.083 1493 908.5 1499.5 908.5C1502.67 908.5 1505.83 908.167 1509 907.5C1512.33 906.667 1515.25 905.5 1517.75 904C1520.42 902.5 1522.5 900.583 1524 898.25C1525.67 895.917 1526.5 893.167 1526.5 890C1526.5 884.667 1524.42 880.5 1520.25 877.5C1516.25 874.333 1511.17 871.667 1505 869.5C1498.83 867.333 1492.17 865.167 1485 863C1477.83 860.833 1471.17 857.917 1465 854.25C1458.83 850.583 1453.67 845.75 1449.5 839.75C1445.5 833.75 1443.5 825.833 1443.5 816C1443.5 806.5 1445.33 798.167 1449 791C1452.83 783.833 1457.83 777.833 1464 773C1470.33 768.167 1477.58 764.583 1485.75 762.25C1493.92 759.75 1502.33 758.5 1511 758.5C1521 758.5 1530.67 759.917 1540 762.75C1549.33 765.583 1557.75 770.333 1565.25 777L1538.5 806.25ZM1594.05 763H1633.05V940H1594.05 V763ZM1726.78 763H1759.03L1836.03 940H1792.03L1776.78 902.5H1708.03L1693.28 940H1650.28L1726.78 763ZM1741.78 814.5L1720.28 869.5H1763.53L1741.78 814.5Z" fill="black"/>
</svg>
