<svg width="109" height="40" viewBox="900 150 950 252" fill="none" xmlns="http://www.w3.org/2000/svg">
<path d="M1057.9 316.667L1125.9 277.384L976.766 191.414V152L1126.66 238.402V316.292L1057.9 356.024V316.667Z" fill="#2A9D8F"/>
<path d="M988.758 237.333L920.759 276.616L1069.89 362.586V402L920 315.598V237.708L988.758 197.976V237.333Z" fill="#2A9D8F"/>
<circle cx="1023" cy="276" r="38" fill="white"/>
<path d="M1183.5 195H1228L1271.75 311H1272.25L1316.75 195H1358.5L1285.5 372H1254.25L1183.5 195ZM1376.53 195H1415.53V372H1376.53V195ZM1538.5 238.25C1535.33 234.25 1531 231.333 1525.5 229.5C1520.17 227.5 1515.08 226.5 1510.25 226.5C1507.42 226.5 1504.5 226.833 1501.5 227.5C1498.5 228.167 1495.67 229.25 1493 230.75C1490.33 232.083 1488.17 233.917 1486.5 236.25C1484.83 238.583 1484 241.417 1484 244.75C1484 250.083 1486 254.167 1490 257C1494 259.833 1499 262.25 1505 264.25C1511.17 266.25 1517.75 268.25 1524.75 270.25C1531.75 272.25 1538.25 275.083 1544.25 278.75C1550.42 282.417 1555.5 287.333 1559.5 293.5C1563.5 299.667 1565.5 307.917 1565.5 318.25C1565.5 328.083 1563.67 336.667 1560 344C1556.33 351.333 1551.33 357.417 1545 362.25C1538.83 367.083 1531.58 370.667 1523.25 373C1515.08 375.333 1506.42 376.5 1497.25 376.5C1485.75 376.5 1475.08 374.75 1465.25 371.25C1455.42 367.75 1446.25 362.083 1437.75 354.25L1465.5 323.75C1469.5 329.083 1474.5 333.25 1480.5 336.25C1486.67 339.083 1493 340.5 1499.5 340.5C1502.67 340.5 1505.83 340.167 1509 339.5C1512.33 338.667 1515.25 337.5 1517.75 336C1520.42 334.5 1522.5 332.583 1524 330.25C1525.67 327.917 1526.5 325.167 1526.5 322C1526.5 316.667 1524.42 312.5 1520.25 309.5C1516.25 306.333 1511.17 303.667 1505 301.5C1498.83 299.333 1492.17 297.167 1485 295C1477.83 292.833 1471.17 289.917 1465 286.25C1458.83 282.583 1453.67 277.75 1449.5 271.75C1445.5 265.75 1443.5 257.833 1443.5 248C1443.5 238.5 1445.33 230.167 1449 223C1452.83 215.833 1457.83 209.833 1464 205C1470.33 200.167 1477.58 196.583 1485.75 194.25C1493.92 191.75 1502.33 190.5 1511 190.5C1521 190.5 1530.67 191.917 1540 194.75C1549.33 197.583 1557.75 202.333 1565.25 209L1538.5 238.25ZM1594.05 195H1633.05V372H1594.05 V195ZM1726.78 195H1759.03L1836.03 372H1792.03L1776.78 334.5H1708.03L1693.28 372H1650.28L1726.78 195ZM1741.78 246.5L1720.28 301.5H1763.53L1741.78 246.5Z" fill="white"/>
</svg>
